  999
DXF created from gearsgen.py phill baker
  0
SECTION
  2
ENTITIES
  0
LINE
  8
 gear 
 10
0.800369
 20
0.221258
 11
0.800369
 21
0.221258
  0
LINE
  8
 gear 
 10
0.800369
 20
-0.221258
 11
0.800369
 21
-0.221258
  0
LINE
  8
 gear 
 10
0.800369
 20
0.221258
 11
0.800369
 21
0.221258
  0
LINE
  8
 gear 
 10
0.800369
 20
-0.221258
 11
0.800369
 21
-0.221258
  0
LINE
  8
 gear 
 10
0.800369
 20
0.221258
 11
0.800369
 21
0.221258
  0
LINE
  8
 gear 
 10
0.800369
 20
-0.221258
 11
0.800369
 21
-0.221258
  0
LINE
  8
 gear 
 10
0.800369
 20
0.221258
 11
0.800369
 21
0.221258
  0
LINE
  8
 gear 
 10
0.800369
 20
-0.221258
 11
0.800369
 21
-0.221258
  0
LINE
  8
 gear 
 10
0.800369
 20
0.221258
 11
0.800369
 21
0.221258
  0
LINE
  8
 gear 
 10
0.800369
 20
-0.221258
 11
0.800369
 21
-0.221258
  0
LINE
  8
 gear 
 10
0.800369
 20
0.221258
 11
0.800369
 21
0.221258
  0
LINE
  8
 gear 
 10
0.800369
 20
-0.221258
 11
0.800369
 21
-0.221258
  0
LINE
  8
 gear 
 10
0.800369
 20
0.221258
 11
0.800369
 21
0.221258
  0
LINE
  8
 gear 
 10
0.800369
 20
-0.221258
 11
0.800369
 21
-0.221258
  0
LINE
  8
 gear 
 10
0.800369
 20
0.221258
 11
0.800369
 21
0.221258
  0
LINE
  8
 gear 
 10
0.800369
 20
-0.221258
 11
0.800369
 21
-0.221258
  0
LINE
  8
 gear 
 10
0.800369
 20
0.221258
 11
0.800369
 21
0.221258
  0
LINE
  8
 gear 
 10
0.800369
 20
-0.221258
 11
0.800369
 21
-0.221258
  0
LINE
  8
 gear 
 10
0.800369
 20
0.221258
 11
0.800369
 21
0.221258
  0
LINE
  8
 gear 
 10
0.800369
 20
-0.221258
 11
0.800369
 21
-0.221258
  0
LINE
  8
 gear 
 10
0.800369
 20
0.221258
 11
0.800369
 21
-0.221258
  0
LINE
  8
 gear 
 10
0.516367
 20
0.650315
 11
0.516367
 21
0.650315
  0
LINE
  8
 gear 
 10
0.777073
 20
0.292751
 11
0.777073
 21
0.292751
  0
LINE
  8
 gear 
 10
0.516367
 20
0.650315
 11
0.516367
 21
0.650315
  0
LINE
  8
 gear 
 10
0.777073
 20
0.292751
 11
0.777073
 21
0.292751
  0
LINE
  8
 gear 
 10
0.516367
 20
0.650315
 11
0.516367
 21
0.650315
  0
LINE
  8
 gear 
 10
0.777073
 20
0.292751
 11
0.777073
 21
0.292751
  0
LINE
  8
 gear 
 10
0.516367
 20
0.650315
 11
0.516367
 21
0.650315
  0
LINE
  8
 gear 
 10
0.777073
 20
0.292751
 11
0.777073
 21
0.292751
  0
LINE
  8
 gear 
 10
0.516367
 20
0.650315
 11
0.516367
 21
0.650315
  0
LINE
  8
 gear 
 10
0.777073
 20
0.292751
 11
0.777073
 21
0.292751
  0
LINE
  8
 gear 
 10
0.516367
 20
0.650315
 11
0.516367
 21
0.650315
  0
LINE
  8
 gear 
 10
0.777073
 20
0.292751
 11
0.777073
 21
0.292751
  0
LINE
  8
 gear 
 10
0.516367
 20
0.650315
 11
0.516367
 21
0.650315
  0
LINE
  8
 gear 
 10
0.777073
 20
0.292751
 11
0.777073
 21
0.292751
  0
LINE
  8
 gear 
 10
0.516367
 20
0.650315
 11
0.516367
 21
0.650315
  0
LINE
  8
 gear 
 10
0.777073
 20
0.292751
 11
0.777073
 21
0.292751
  0
LINE
  8
 gear 
 10
0.516367
 20
0.650315
 11
0.516367
 21
0.650315
  0
LINE
  8
 gear 
 10
0.777073
 20
0.292751
 11
0.777073
 21
0.292751
  0
LINE
  8
 gear 
 10
0.516367
 20
0.650315
 11
0.516367
 21
0.650315
  0
LINE
  8
 gear 
 10
0.777073
 20
0.292751
 11
0.777073
 21
0.292751
  0
LINE
  8
 gear 
 10
0.516367
 20
0.650315
 11
0.777073
 21
0.292751
  0
LINE
  8
 gear 
 10
0.034109
 20
0.829688
 11
0.034109
 21
0.829688
  0
LINE
  8
 gear 
 10
0.455423
 20
0.694359
 11
0.455423
 21
0.694359
  0
LINE
  8
 gear 
 10
0.034109
 20
0.829688
 11
0.034109
 21
0.829688
  0
LINE
  8
 gear 
 10
0.455423
 20
0.694359
 11
0.455423
 21
0.694359
  0
LINE
  8
 gear 
 10
0.034109
 20
0.829688
 11
0.034109
 21
0.829688
  0
LINE
  8
 gear 
 10
0.455423
 20
0.694359
 11
0.455423
 21
0.694359
  0
LINE
  8
 gear 
 10
0.034109
 20
0.829688
 11
0.034109
 21
0.829688
  0
LINE
  8
 gear 
 10
0.455423
 20
0.694359
 11
0.455423
 21
0.694359
  0
LINE
  8
 gear 
 10
0.034109
 20
0.829688
 11
0.034109
 21
0.829688
  0
LINE
  8
 gear 
 10
0.455423
 20
0.694359
 11
0.455423
 21
0.694359
  0
LINE
  8
 gear 
 10
0.034109
 20
0.829688
 11
0.034109
 21
0.829688
  0
LINE
  8
 gear 
 10
0.455423
 20
0.694359
 11
0.455423
 21
0.694359
  0
LINE
  8
 gear 
 10
0.034109
 20
0.829688
 11
0.034109
 21
0.829688
  0
LINE
  8
 gear 
 10
0.455423
 20
0.694359
 11
0.455423
 21
0.694359
  0
LINE
  8
 gear 
 10
0.034109
 20
0.829688
 11
0.034109
 21
0.829688
  0
LINE
  8
 gear 
 10
0.455423
 20
0.694359
 11
0.455423
 21
0.694359
  0
LINE
  8
 gear 
 10
0.034109
 20
0.829688
 11
0.034109
 21
0.829688
  0
LINE
  8
 gear 
 10
0.455423
 20
0.694359
 11
0.455423
 21
0.694359
  0
LINE
  8
 gear 
 10
0.034109
 20
0.829688
 11
0.034109
 21
0.829688
  0
LINE
  8
 gear 
 10
0.455423
 20
0.694359
 11
0.455423
 21
0.694359
  0
LINE
  8
 gear 
 10
0.034109
 20
0.829688
 11
0.455423
 21
0.694359
  0
LINE
  8
 gear 
 10
-0.461245
 20
0.690505
 11
-0.461245
 21
0.690505
  0
LINE
  8
 gear 
 10
-0.041083
 20
0.829371
 11
-0.041083
 21
0.829371
  0
LINE
  8
 gear 
 10
-0.461245
 20
0.690505
 11
-0.461245
 21
0.690505
  0
LINE
  8
 gear 
 10
-0.041083
 20
0.829371
 11
-0.041083
 21
0.829371
  0
LINE
  8
 gear 
 10
-0.461245
 20
0.690505
 11
-0.461245
 21
0.690505
  0
LINE
  8
 gear 
 10
-0.041083
 20
0.829371
 11
-0.041083
 21
0.829371
  0
LINE
  8
 gear 
 10
-0.461245
 20
0.690505
 11
-0.461245
 21
0.690505
  0
LINE
  8
 gear 
 10
-0.041083
 20
0.829371
 11
-0.041083
 21
0.829371
  0
LINE
  8
 gear 
 10
-0.461245
 20
0.690505
 11
-0.461245
 21
0.690505
  0
LINE
  8
 gear 
 10
-0.041083
 20
0.829371
 11
-0.041083
 21
0.829371
  0
LINE
  8
 gear 
 10
-0.461245
 20
0.690505
 11
-0.461245
 21
0.690505
  0
LINE
  8
 gear 
 10
-0.041083
 20
0.829371
 11
-0.041083
 21
0.829371
  0
LINE
  8
 gear 
 10
-0.461245
 20
0.690505
 11
-0.461245
 21
0.690505
  0
LINE
  8
 gear 
 10
-0.041083
 20
0.829371
 11
-0.041083
 21
0.829371
  0
LINE
  8
 gear 
 10
-0.461245
 20
0.690505
 11
-0.461245
 21
0.690505
  0
LINE
  8
 gear 
 10
-0.041083
 20
0.829371
 11
-0.041083
 21
0.829371
  0
LINE
  8
 gear 
 10
-0.461245
 20
0.690505
 11
-0.461245
 21
0.690505
  0
LINE
  8
 gear 
 10
-0.041083
 20
0.829371
 11
-0.041083
 21
0.829371
  0
LINE
  8
 gear 
 10
-0.461245
 20
0.690505
 11
-0.461245
 21
0.690505
  0
LINE
  8
 gear 
 10
-0.041083
 20
0.829371
 11
-0.041083
 21
0.829371
  0
LINE
  8
 gear 
 10
-0.461245
 20
0.690505
 11
-0.041083
 21
0.829371
  0
LINE
  8
 gear 
 10
-0.779506
 20
0.286207
 11
-0.779506
 21
0.286207
  0
LINE
  8
 gear 
 10
-0.521816
 20
0.645951
 11
-0.521816
 21
0.645951
  0
LINE
  8
 gear 
 10
-0.779506
 20
0.286207
 11
-0.779506
 21
0.286207
  0
LINE
  8
 gear 
 10
-0.521816
 20
0.645951
 11
-0.521816
 21
0.645951
  0
LINE
  8
 gear 
 10
-0.779506
 20
0.286207
 11
-0.779506
 21
0.286207
  0
LINE
  8
 gear 
 10
-0.521816
 20
0.645951
 11
-0.521816
 21
0.645951
  0
LINE
  8
 gear 
 10
-0.779506
 20
0.286207
 11
-0.779506
 21
0.286207
  0
LINE
  8
 gear 
 10
-0.521816
 20
0.645951
 11
-0.521816
 21
0.645951
  0
LINE
  8
 gear 
 10
-0.779506
 20
0.286207
 11
-0.779506
 21
0.286207
  0
LINE
  8
 gear 
 10
-0.521816
 20
0.645951
 11
-0.521816
 21
0.645951
  0
LINE
  8
 gear 
 10
-0.779506
 20
0.286207
 11
-0.779506
 21
0.286207
  0
LINE
  8
 gear 
 10
-0.521816
 20
0.645951
 11
-0.521816
 21
0.645951
  0
LINE
  8
 gear 
 10
-0.779506
 20
0.286207
 11
-0.779506
 21
0.286207
  0
LINE
  8
 gear 
 10
-0.521816
 20
0.645951
 11
-0.521816
 21
0.645951
  0
LINE
  8
 gear 
 10
-0.779506
 20
0.286207
 11
-0.779506
 21
0.286207
  0
LINE
  8
 gear 
 10
-0.521816
 20
0.645951
 11
-0.521816
 21
0.645951
  0
LINE
  8
 gear 
 10
-0.779506
 20
0.286207
 11
-0.779506
 21
0.286207
  0
LINE
  8
 gear 
 10
-0.521816
 20
0.645951
 11
-0.521816
 21
0.645951
  0
LINE
  8
 gear 
 10
-0.779506
 20
0.286207
 11
-0.779506
 21
0.286207
  0
LINE
  8
 gear 
 10
-0.521816
 20
0.645951
 11
-0.521816
 21
0.645951
  0
LINE
  8
 gear 
 10
-0.779506
 20
0.286207
 11
-0.521816
 21
0.645951
  0
LINE
  8
 gear 
 10
-0.798480
 20
-0.227979
 11
-0.798480
 21
-0.227979
  0
LINE
  8
 gear 
 10
-0.802200
 20
0.214521
 11
-0.802200
 21
0.214521
  0
LINE
  8
 gear 
 10
-0.798480
 20
-0.227979
 11
-0.798480
 21
-0.227979
  0
LINE
  8
 gear 
 10
-0.802200
 20
0.214521
 11
-0.802200
 21
0.214521
  0
LINE
  8
 gear 
 10
-0.798480
 20
-0.227979
 11
-0.798480
 21
-0.227979
  0
LINE
  8
 gear 
 10
-0.802200
 20
0.214521
 11
-0.802200
 21
0.214521
  0
LINE
  8
 gear 
 10
-0.798480
 20
-0.227979
 11
-0.798480
 21
-0.227979
  0
LINE
  8
 gear 
 10
-0.802200
 20
0.214521
 11
-0.802200
 21
0.214521
  0
LINE
  8
 gear 
 10
-0.798480
 20
-0.227979
 11
-0.798480
 21
-0.227979
  0
LINE
  8
 gear 
 10
-0.802200
 20
0.214521
 11
-0.802200
 21
0.214521
  0
LINE
  8
 gear 
 10
-0.798480
 20
-0.227979
 11
-0.798480
 21
-0.227979
  0
LINE
  8
 gear 
 10
-0.802200
 20
0.214521
 11
-0.802200
 21
0.214521
  0
LINE
  8
 gear 
 10
-0.798480
 20
-0.227979
 11
-0.798480
 21
-0.227979
  0
LINE
  8
 gear 
 10
-0.802200
 20
0.214521
 11
-0.802200
 21
0.214521
  0
LINE
  8
 gear 
 10
-0.798480
 20
-0.227979
 11
-0.798480
 21
-0.227979
  0
LINE
  8
 gear 
 10
-0.802200
 20
0.214521
 11
-0.802200
 21
0.214521
  0
LINE
  8
 gear 
 10
-0.798480
 20
-0.227979
 11
-0.798480
 21
-0.227979
  0
LINE
  8
 gear 
 10
-0.802200
 20
0.214521
 11
-0.802200
 21
0.214521
  0
LINE
  8
 gear 
 10
-0.798480
 20
-0.227979
 11
-0.798480
 21
-0.227979
  0
LINE
  8
 gear 
 10
-0.802200
 20
0.214521
 11
-0.802200
 21
0.214521
  0
LINE
  8
 gear 
 10
-0.798480
 20
-0.227979
 11
-0.802200
 21
0.214521
  0
LINE
  8
 gear 
 10
-0.510881
 20
-0.654633
 11
-0.510881
 21
-0.654633
  0
LINE
  8
 gear 
 10
-0.774584
 20
-0.299273
 11
-0.774584
 21
-0.299273
  0
LINE
  8
 gear 
 10
-0.510881
 20
-0.654633
 11
-0.510881
 21
-0.654633
  0
LINE
  8
 gear 
 10
-0.774584
 20
-0.299273
 11
-0.774584
 21
-0.299273
  0
LINE
  8
 gear 
 10
-0.510881
 20
-0.654633
 11
-0.510881
 21
-0.654633
  0
LINE
  8
 gear 
 10
-0.774584
 20
-0.299273
 11
-0.774584
 21
-0.299273
  0
LINE
  8
 gear 
 10
-0.510881
 20
-0.654633
 11
-0.510881
 21
-0.654633
  0
LINE
  8
 gear 
 10
-0.774584
 20
-0.299273
 11
-0.774584
 21
-0.299273
  0
LINE
  8
 gear 
 10
-0.510881
 20
-0.654633
 11
-0.510881
 21
-0.654633
  0
LINE
  8
 gear 
 10
-0.774584
 20
-0.299273
 11
-0.774584
 21
-0.299273
  0
LINE
  8
 gear 
 10
-0.510881
 20
-0.654633
 11
-0.510881
 21
-0.654633
  0
LINE
  8
 gear 
 10
-0.774584
 20
-0.299273
 11
-0.774584
 21
-0.299273
  0
LINE
  8
 gear 
 10
-0.510881
 20
-0.654633
 11
-0.510881
 21
-0.654633
  0
LINE
  8
 gear 
 10
-0.774584
 20
-0.299273
 11
-0.774584
 21
-0.299273
  0
LINE
  8
 gear 
 10
-0.510881
 20
-0.654633
 11
-0.510881
 21
-0.654633
  0
LINE
  8
 gear 
 10
-0.774584
 20
-0.299273
 11
-0.774584
 21
-0.299273
  0
LINE
  8
 gear 
 10
-0.510881
 20
-0.654633
 11
-0.510881
 21
-0.654633
  0
LINE
  8
 gear 
 10
-0.774584
 20
-0.299273
 11
-0.774584
 21
-0.299273
  0
LINE
  8
 gear 
 10
-0.510881
 20
-0.654633
 11
-0.510881
 21
-0.654633
  0
LINE
  8
 gear 
 10
-0.774584
 20
-0.299273
 11
-0.774584
 21
-0.299273
  0
LINE
  8
 gear 
 10
-0.510881
 20
-0.654633
 11
-0.774584
 21
-0.299273
  0
LINE
  8
 gear 
 10
-0.027132
 20
-0.829945
 11
-0.027132
 21
-0.829945
  0
LINE
  8
 gear 
 10
-0.449570
 20
-0.698163
 11
-0.449570
 21
-0.698163
  0
LINE
  8
 gear 
 10
-0.027132
 20
-0.829945
 11
-0.027132
 21
-0.829945
  0
LINE
  8
 gear 
 10
-0.449570
 20
-0.698163
 11
-0.449570
 21
-0.698163
  0
LINE
  8
 gear 
 10
-0.027132
 20
-0.829945
 11
-0.027132
 21
-0.829945
  0
LINE
  8
 gear 
 10
-0.449570
 20
-0.698163
 11
-0.449570
 21
-0.698163
  0
LINE
  8
 gear 
 10
-0.027132
 20
-0.829945
 11
-0.027132
 21
-0.829945
  0
LINE
  8
 gear 
 10
-0.449570
 20
-0.698163
 11
-0.449570
 21
-0.698163
  0
LINE
  8
 gear 
 10
-0.027132
 20
-0.829945
 11
-0.027132
 21
-0.829945
  0
LINE
  8
 gear 
 10
-0.449570
 20
-0.698163
 11
-0.449570
 21
-0.698163
  0
LINE
  8
 gear 
 10
-0.027132
 20
-0.829945
 11
-0.027132
 21
-0.829945
  0
LINE
  8
 gear 
 10
-0.449570
 20
-0.698163
 11
-0.449570
 21
-0.698163
  0
LINE
  8
 gear 
 10
-0.027132
 20
-0.829945
 11
-0.027132
 21
-0.829945
  0
LINE
  8
 gear 
 10
-0.449570
 20
-0.698163
 11
-0.449570
 21
-0.698163
  0
LINE
  8
 gear 
 10
-0.027132
 20
-0.829945
 11
-0.027132
 21
-0.829945
  0
LINE
  8
 gear 
 10
-0.449570
 20
-0.698163
 11
-0.449570
 21
-0.698163
  0
LINE
  8
 gear 
 10
-0.027132
 20
-0.829945
 11
-0.027132
 21
-0.829945
  0
LINE
  8
 gear 
 10
-0.449570
 20
-0.698163
 11
-0.449570
 21
-0.698163
  0
LINE
  8
 gear 
 10
-0.027132
 20
-0.829945
 11
-0.027132
 21
-0.829945
  0
LINE
  8
 gear 
 10
-0.449570
 20
-0.698163
 11
-0.449570
 21
-0.698163
  0
LINE
  8
 gear 
 10
-0.027132
 20
-0.829945
 11
-0.449570
 21
-0.698163
  0
LINE
  8
 gear 
 10
0.467034
 20
-0.686603
 11
0.467034
 21
-0.686603
  0
LINE
  8
 gear 
 10
0.048055
 20
-0.828997
 11
0.048055
 21
-0.828997
  0
LINE
  8
 gear 
 10
0.467034
 20
-0.686603
 11
0.467034
 21
-0.686603
  0
LINE
  8
 gear 
 10
0.048055
 20
-0.828997
 11
0.048055
 21
-0.828997
  0
LINE
  8
 gear 
 10
0.467034
 20
-0.686603
 11
0.467034
 21
-0.686603
  0
LINE
  8
 gear 
 10
0.048055
 20
-0.828997
 11
0.048055
 21
-0.828997
  0
LINE
  8
 gear 
 10
0.467034
 20
-0.686603
 11
0.467034
 21
-0.686603
  0
LINE
  8
 gear 
 10
0.048055
 20
-0.828997
 11
0.048055
 21
-0.828997
  0
LINE
  8
 gear 
 10
0.467034
 20
-0.686603
 11
0.467034
 21
-0.686603
  0
LINE
  8
 gear 
 10
0.048055
 20
-0.828997
 11
0.048055
 21
-0.828997
  0
LINE
  8
 gear 
 10
0.467034
 20
-0.686603
 11
0.467034
 21
-0.686603
  0
LINE
  8
 gear 
 10
0.048055
 20
-0.828997
 11
0.048055
 21
-0.828997
  0
LINE
  8
 gear 
 10
0.467034
 20
-0.686603
 11
0.467034
 21
-0.686603
  0
LINE
  8
 gear 
 10
0.048055
 20
-0.828997
 11
0.048055
 21
-0.828997
  0
LINE
  8
 gear 
 10
0.467034
 20
-0.686603
 11
0.467034
 21
-0.686603
  0
LINE
  8
 gear 
 10
0.048055
 20
-0.828997
 11
0.048055
 21
-0.828997
  0
LINE
  8
 gear 
 10
0.467034
 20
-0.686603
 11
0.467034
 21
-0.686603
  0
LINE
  8
 gear 
 10
0.048055
 20
-0.828997
 11
0.048055
 21
-0.828997
  0
LINE
  8
 gear 
 10
0.467034
 20
-0.686603
 11
0.467034
 21
-0.686603
  0
LINE
  8
 gear 
 10
0.048055
 20
-0.828997
 11
0.048055
 21
-0.828997
  0
LINE
  8
 gear 
 10
0.467034
 20
-0.686603
 11
0.048055
 21
-0.828997
  0
LINE
  8
 gear 
 10
0.781885
 20
-0.279644
 11
0.781885
 21
-0.279644
  0
LINE
  8
 gear 
 10
0.527228
 20
-0.641541
 11
0.527228
 21
-0.641541
  0
LINE
  8
 gear 
 10
0.781885
 20
-0.279644
 11
0.781885
 21
-0.279644
  0
LINE
  8
 gear 
 10
0.527228
 20
-0.641541
 11
0.527228
 21
-0.641541
  0
LINE
  8
 gear 
 10
0.781885
 20
-0.279644
 11
0.781885
 21
-0.279644
  0
LINE
  8
 gear 
 10
0.527228
 20
-0.641541
 11
0.527228
 21
-0.641541
  0
LINE
  8
 gear 
 10
0.781885
 20
-0.279644
 11
0.781885
 21
-0.279644
  0
LINE
  8
 gear 
 10
0.527228
 20
-0.641541
 11
0.527228
 21
-0.641541
  0
LINE
  8
 gear 
 10
0.781885
 20
-0.279644
 11
0.781885
 21
-0.279644
  0
LINE
  8
 gear 
 10
0.527228
 20
-0.641541
 11
0.527228
 21
-0.641541
  0
LINE
  8
 gear 
 10
0.781885
 20
-0.279644
 11
0.781885
 21
-0.279644
  0
LINE
  8
 gear 
 10
0.527228
 20
-0.641541
 11
0.527228
 21
-0.641541
  0
LINE
  8
 gear 
 10
0.781885
 20
-0.279644
 11
0.781885
 21
-0.279644
  0
LINE
  8
 gear 
 10
0.527228
 20
-0.641541
 11
0.527228
 21
-0.641541
  0
LINE
  8
 gear 
 10
0.781885
 20
-0.279644
 11
0.781885
 21
-0.279644
  0
LINE
  8
 gear 
 10
0.527228
 20
-0.641541
 11
0.527228
 21
-0.641541
  0
LINE
  8
 gear 
 10
0.781885
 20
-0.279644
 11
0.781885
 21
-0.279644
  0
LINE
  8
 gear 
 10
0.527228
 20
-0.641541
 11
0.527228
 21
-0.641541
  0
LINE
  8
 gear 
 10
0.781885
 20
-0.279644
 11
0.781885
 21
-0.279644
  0
LINE
  8
 gear 
 10
0.527228
 20
-0.641541
 11
0.527228
 21
-0.641541
  0
LINE
  8
 gear 
 10
0.781885
 20
-0.279644
 11
0.527228
 21
-0.641541
  0
LINE
  8
 gear 
 10
0.102227
 20
-0.071934
 11
0.125000
 21
0.000000
  0
LINE
  8
 gear 
 10
0.125000
 20
0.000000
 11
0.101003
 21
0.073643
  0
LINE
  8
 gear 
 10
0.101003
 20
0.073643
 11
0.038227
 21
0.119011
  0
LINE
  8
 gear 
 10
0.038227
 20
0.119011
 11
-0.039226
 21
0.118686
  0
LINE
  8
 gear 
 10
-0.039226
 20
0.118686
 11
-0.101619
 21
0.072791
  0
LINE
  8
 gear 
 10
-0.101619
 20
0.072791
 11
-0.124996
 21
-0.001051
  0
LINE
  8
 gear 
 10
-0.124996
 20
-0.001051
 11
-0.100381
 21
-0.074490
  0
LINE
  8
 gear 
 10
-0.100381
 20
-0.074490
 11
-0.037225
 21
-0.119328
  0
LINE
  8
 gear 
 10
-0.037225
 20
-0.119328
 11
0.040223
 21
-0.118352
  0
LINE
  8
 gear 
 10
0.040223
 20
-0.118352
 11
0.102227
 21
-0.071934
  0
LINE
  8
 gear 
 10
0.781885
 20
-0.279644
 11
0.800369
 21
-0.221258
  0
LINE
  8
 gear 
 10
0.800369
 20
0.221258
 11
0.777073
 21
0.292751
  0
LINE
  8
 gear 
 10
0.516367
 20
0.650315
 11
0.455423
 21
0.694359
  0
LINE
  8
 gear 
 10
0.034109
 20
0.829688
 11
-0.041083
 21
0.829371
  0
LINE
  8
 gear 
 10
-0.461245
 20
0.690505
 11
-0.521816
 21
0.645951
  0
LINE
  8
 gear 
 10
-0.779506
 20
0.286207
 11
-0.802200
 21
0.214521
  0
LINE
  8
 gear 
 10
-0.798480
 20
-0.227979
 11
-0.774584
 21
-0.299273
  0
LINE
  8
 gear 
 10
-0.510881
 20
-0.654633
 11
-0.449570
 21
-0.698163
  0
LINE
  8
 gear 
 10
-0.027132
 20
-0.829945
 11
0.048055
 21
-0.828997
  0
LINE
  8
 gear 
 10
0.467034
 20
-0.686603
 11
0.527228
 21
-0.641541
  0
ENDSEC
  0
EOF
